<?xml version="1.0" standalone="no"?>
<!DOCTYPE svg PUBLIC "-//W3C//DTD SVG 20010904//EN"
 "http://www.w3.org/TR/2001/REC-SVG-20010904/DTD/svg10.dtd">
<svg version="1.0" xmlns="http://www.w3.org/2000/svg"
 width="700.000000pt" height="700.000000pt" viewBox="0 0 700.000000 700.000000"
 preserveAspectRatio="xMidYMid meet">
<metadata>
Created by potrace 1.11, written by Peter Selinger 2001-2013
</metadata>
<g transform="translate(0.000000,700.000000) scale(0.100000,-0.100000)"
fill="#000000" stroke="none">
<path d="M3352 6986 c-146 -36 -304 -160 -428 -336 l-48 -67 -101 0 c-116 1
-185 -16 -272 -67 -158 -93 -256 -264 -256 -446 1 -167 71 -304 217 -423 l29
-23 -28 -115 c-15 -63 -29 -127 -32 -144 -7 -41 -15 -48 -49 -34 -170 66 -656
183 -849 204 -32 4 -68 9 -80 12 -41 9 -392 11 -454 2 -193 -28 -279 -55 -390
-126 -111 -69 -206 -203 -226 -318 -11 -57 -13 -174 -4 -215 4 -19 10 -48 12
-65 7 -47 55 -184 90 -255 77 -159 194 -338 337 -512 86 -105 384 -411 490
-505 l59 -51 -47 -42 c-116 -105 -342 -332 -433 -437 -60 -68 -194 -241 -228
-293 -20 -30 -38 -57 -41 -60 -15 -15 -76 -124 -125 -223 -193 -390 -150 -701
120 -872 57 -37 157 -78 230 -96 53 -12 67 -21 71 -41 11 -68 72 -180 131
-243 138 -147 381 -200 563 -123 73 30 162 96 208 153 66 82 117 210 115 291
0 19 12 25 101 49 93 25 219 61 339 99 36 11 49 11 52 3 2 -7 13 -55 24 -107
12 -52 25 -111 31 -130 5 -19 23 -84 40 -145 168 -615 405 -1034 683 -1209
108 -67 278 -92 398 -57 243 70 460 320 635 731 25 58 49 114 54 125 54 120
191 598 225 785 3 20 3 20 215 -43 182 -54 411 -110 500 -122 25 -3 52 -8 60
-10 83 -23 269 -39 455 -39 208 1 327 17 445 61 164 62 293 176 340 302 28 76
31 94 35 184 4 114 -24 240 -86 394 -12 30 -11 34 13 60 211 225 159 615 -104
780 -83 52 -146 73 -240 80 -89 7 -177 -8 -253 -42 -48 -21 -54 -21 -67 -6 -8
9 -68 67 -133 129 l-119 113 104 97 c214 200 379 379 511 552 35 47 66 87 69
90 19 18 136 212 178 295 93 186 134 343 127 480 -6 98 -11 120 -50 203 -82
175 -259 282 -540 329 -70 11 -405 9 -500 -3 -55 -7 -119 -16 -143 -19 -118
-16 -419 -85 -587 -135 -38 -12 -77 -23 -85 -25 -8 -2 -42 -13 -74 -24 -61
-22 -75 -18 -76 17 0 7 -14 70 -31 140 -17 70 -32 134 -34 142 -2 8 -22 76
-44 150 -182 619 -431 1025 -705 1155 -108 51 -239 67 -344 41z m274 -236 c66
-32 158 -115 221 -200 161 -216 323 -631 432 -1110 43 -188 43 -190 23 -197
-151 -52 -500 -199 -710 -298 l-122 -58 -133 63 c-148 71 -409 183 -595 255
-97 38 -121 51 -118 64 3 9 13 50 21 91 21 97 21 97 35 150 l11 45 87 1 c280
5 501 230 500 512 0 146 -45 256 -150 365 l-66 70 38 51 c46 62 82 100 140
147 61 49 101 68 173 83 75 15 130 7 213 -34z m-2301 -1404 c183 -8 458 -56
700 -123 50 -13 95 -25 100 -26 6 -2 66 -20 134 -42 l123 -39 -5 -36 c-3 -19
-14 -93 -25 -165 -11 -71 -24 -155 -27 -185 -4 -30 -9 -66 -10 -80 -2 -14 -7
-59 -10 -100 -4 -41 -9 -82 -10 -92 -2 -9 -6 -54 -10 -100 -9 -112 -14 -160
-17 -164 -2 -1 -55 -38 -118 -83 -63 -44 -124 -87 -135 -95 -142 -103 -212
-156 -330 -251 -77 -61 -145 -114 -152 -118 -15 -9 -81 50 -283 253 -380 381
-601 713 -656 984 -35 169 10 291 135 371 81 50 237 89 377 94 38 1 70 4 72 6
2 1 11 1 20 -1 9 -1 67 -5 127 -8z m4540 0 c235 -13 398 -89 467 -218 33 -62
33 -212 0 -318 -58 -185 -192 -404 -401 -655 -83 -99 -450 -471 -494 -500 -28
-18 -28 -18 -55 7 -15 14 -103 85 -197 157 -93 72 -175 135 -180 140 -6 4 -80
56 -165 116 -85 59 -158 111 -162 114 -4 3 -9 38 -12 76 -7 77 -14 156 -22
225 -2 25 -7 65 -9 90 -13 118 -18 154 -36 275 -11 72 -22 146 -25 165 -2 19
-7 50 -10 68 -3 17 -3 32 0 32 2 0 55 16 118 36 95 30 292 85 349 99 234 53
427 83 584 91 66 4 122 8 123 10 2 1 9 1 15 -1 7 -2 57 -6 112 -9z m-3105
-371 c74 -30 198 -82 275 -115 77 -34 152 -67 168 -73 15 -6 27 -14 27 -17 0
-3 -71 -43 -157 -90 -120 -65 -466 -267 -570 -333 -13 -8 -11 29 12 213 3 19
7 58 10 85 10 85 15 126 20 154 5 28 8 47 26 164 14 91 -8 89 189 12z m1601
58 c0 -5 2 -15 4 -23 3 -15 8 -52 20 -135 3 -23 7 -52 10 -65 3 -14 8 -47 11
-75 3 -27 7 -61 9 -75 2 -14 6 -54 10 -90 4 -36 8 -76 10 -90 16 -107 17 -142
4 -134 -8 4 -59 36 -114 69 -154 95 -441 260 -552 317 -35 18 -63 35 -63 38 1
11 609 269 638 270 6 0 12 -3 13 -7z m-732 -460 c121 -63 306 -166 456 -253
218 -126 385 -238 386 -257 0 -10 3 -70 7 -133 8 -151 8 -724 -1 -865 -3 -60
-6 -117 -7 -126 0 -17 -90 -79 -280 -194 -230 -139 -443 -259 -638 -358 l-83
-42 -77 40 c-222 114 -629 349 -844 488 l-78 50 -1 51 c-1 28 -3 78 -6 111 -6
74 -6 795 0 850 3 22 5 63 6 92 l1 51 133 85 c72 46 169 106 215 133 46 27
100 59 120 71 32 20 405 224 487 266 17 9 36 16 44 17 8 0 80 -34 160 -77z
m-1375 -695 c-4 -69 -4 -679 0 -743 1 -27 1 -53 -1 -57 -8 -16 -558 400 -558
422 0 15 257 217 449 353 60 42 109 77 111 77 1 0 1 -24 -1 -52z m2487 20 c72
-51 304 -222 309 -228 3 -3 49 -40 103 -83 53 -43 97 -80 97 -83 0 -11 -113
-104 -285 -233 -60 -46 -117 -88 -125 -94 -63 -50 -150 -104 -151 -94 0 7 1
64 2 127 4 249 4 481 -1 598 -3 67 -3 122 1 122 3 0 25 -14 50 -32z m-3146
-589 c33 -28 105 -85 160 -126 55 -42 102 -79 105 -83 6 -8 264 -192 348 -249
34 -23 63 -49 63 -59 1 -9 3 -26 4 -37 1 -11 6 -63 9 -115 4 -52 9 -102 11
-110 2 -8 6 -46 10 -85 3 -38 8 -81 10 -95 4 -24 9 -62 20 -152 4 -24 12 -83
20 -133 8 -49 17 -110 20 -135 l6 -46 -88 -28 c-48 -16 -157 -48 -240 -71
l-153 -42 -21 44 c-51 105 -157 201 -269 244 -77 29 -84 31 -180 34 -155 5
-310 -65 -407 -184 -45 -55 -85 -130 -98 -183 l-7 -26 -51 15 c-126 37 -216
104 -260 193 -18 37 -22 62 -21 135 0 115 21 188 94 340 94 195 230 384 442
616 136 148 388 389 405 389 5 0 35 -23 68 -51z m3965 -74 c70 -66 129 -124
129 -128 1 -5 -8 -22 -19 -37 -42 -59 -72 -160 -76 -255 -4 -97 9 -163 47
-242 80 -167 250 -283 434 -296 48 -3 163 12 196 27 13 6 21 -4 37 -46 46
-114 64 -237 47 -319 -25 -125 -130 -213 -307 -258 -215 -55 -571 -38 -925 45
-38 9 -75 17 -83 19 -123 26 -466 131 -475 145 -3 4 4 61 14 127 19 111 25
152 37 248 2 22 7 51 9 65 2 14 7 54 10 90 3 36 8 72 10 80 3 13 8 65 21 235
1 17 2 39 3 51 1 14 20 34 59 59 69 46 335 236 342 245 3 3 30 23 60 45 30 22
106 82 169 133 63 51 118 91 123 90 5 -2 67 -57 138 -123z m-2960 -639 c80
-50 78 -49 220 -132 63 -37 140 -81 170 -97 30 -16 60 -33 65 -37 6 -4 48 -27
93 -50 69 -35 81 -45 70 -55 -23 -21 -599 -265 -627 -265 -5 0 -12 21 -16 46
-3 25 -8 55 -11 67 -4 21 -21 143 -29 212 -3 22 -7 56 -10 75 -6 50 -13 107
-20 170 -3 30 -8 72 -11 93 -6 38 -6 39 17 26 13 -6 53 -30 89 -53z m1845 17
c-3 -27 -7 -68 -10 -93 -2 -25 -7 -65 -10 -90 -3 -25 -7 -63 -10 -85 -7 -56
-25 -188 -29 -211 -2 -10 -7 -41 -10 -69 -12 -98 -16 -106 -39 -99 -78 23
-602 246 -619 263 -5 4 18 20 50 36 31 17 82 44 112 61 30 17 75 43 100 56 78
44 337 196 402 238 35 22 64 40 66 40 2 0 1 -21 -3 -47z m-803 -579 c236 -109
353 -159 563 -239 55 -22 103 -41 107 -44 16 -13 -136 -614 -181 -716 -5 -11
-26 -65 -47 -120 -125 -336 -295 -582 -460 -666 -63 -31 -75 -34 -159 -34 -74
1 -98 5 -135 24 -136 70 -254 210 -366 433 -126 251 -246 615 -319 971 -9 43
-18 84 -21 90 -5 14 18 25 156 77 81 30 240 96 305 125 17 7 66 29 110 49 44
19 121 55 170 80 50 24 95 45 102 45 6 1 85 -33 175 -75z"/>
<path d="M3420 4099 c-25 -5 -58 -11 -75 -14 -56 -10 -190 -83 -247 -135 -257
-231 -270 -626 -28 -871 87 -88 205 -151 325 -174 96 -18 241 -1 340 41 182
76 327 262 360 459 42 255 -96 521 -328 634 -108 53 -246 77 -347 60z"/>
</g>
</svg>
